<?xml version="1.0" encoding="UTF-8" standalone="no"?>
<!DOCTYPE svg PUBLIC "-//W3C//DTD SVG 1.1//EN" "http://www.w3.org/Graphics/SVG/1.1/DTD/svg11.dtd">
<svg width="100%" height="100%" viewBox="0 0 12267 3435" version="1.1" xmlns="http://www.w3.org/2000/svg" xmlns:xlink="http://www.w3.org/1999/xlink" xml:space="preserve" xmlns:serif="http://www.serif.com/" style="fill-rule:evenodd;clip-rule:evenodd;stroke-linejoin:round;stroke-miterlimit:2;">
    <g transform="matrix(1,0,0,1,-17.6813,-10.6894)">
        <g transform="matrix(5.36659,0,0,5.36659,-27.7904,-14.3533)">
            <g id="Sunburst">
                <g transform="matrix(1,0,0,1,289.323,46.1963)">
                    <path d="M0,189.918L-102.04,-9.188C-108.019,-6.421 -113.833,-3.37 -119.46,-0.021L-17.409,199.106C-11.98,195.464 -6.147,192.387 0,189.918" style="fill:rgb(250,199,12);fill-rule:nonzero;"/>
                </g>
                <g transform="matrix(1,0,0,1,311.518,16.0752)">
                    <path d="M0,214.144L-53.307,-4.701C-59.8,-3.457 -66.181,-1.893 -72.422,-0.007L-19.115,218.845C-13.012,216.641 -6.613,215.059 0,214.144" style="fill:rgb(250,199,12);fill-rule:nonzero;"/>
                </g>
                <g transform="matrix(1,0,0,1,269.225,91.5684)">
                    <path d="M0,155.625L-146.869,-13.096C-151.993,-8.986 -156.915,-4.632 -161.586,-0.025L-14.699,168.721C-10.273,163.86 -5.338,159.48 0,155.625" style="fill:rgb(250,199,12);fill-rule:nonzero;"/>
                </g>
                <g transform="matrix(1,0,0,1,239.769,220.074)">
                    <path d="M0,61.799L-208.788,-18.433C-211.403,-12.444 -213.733,-6.304 -215.735,-0.014L-6.904,80.232C-5.242,73.794 -2.904,67.628 0,61.799" style="fill:rgb(250,199,12);fill-rule:nonzero;"/>
                </g>
                <g transform="matrix(1,0,0,1,252.389,150.418)">
                    <path d="M0,112.335L-184.2,-16.231C-188.187,-11.033 -191.929,-5.633 -195.374,-0.029L-11.14,128.566C-7.995,122.757 -4.245,117.332 0,112.335" style="fill:rgb(250,199,12);fill-rule:nonzero;"/>
                </g>
                <g transform="matrix(1,0,0,1,416.367,202.612)">
                    <path d="M0,97.728L213.262,18.417C211.266,12.13 208.93,5.99 206.318,0L-6.892,79.291C-3.993,85.124 -1.653,91.288 0,97.728" style="fill:rgb(250,199,12);fill-rule:nonzero;"/>
                </g>
                <g transform="matrix(1,0,0,1,356.889,10.6368)">
                    <path d="M0,224.309L54.917,4.704C48.675,2.815 42.296,1.251 35.802,0L-19.111,219.59C-12.502,220.509 -6.104,222.094 0,224.309" style="fill:rgb(250,199,12);fill-rule:nonzero;"/>
                </g>
                <g transform="matrix(1,0,0,1,419.333,277.575)">
                    <path d="M0,45.442L226.535,19.547C226.1,12.932 225.327,6.412 224.236,0L-2.24,25.886C-0.847,32.192 -0.067,38.732 0,45.442" style="fill:rgb(250,199,12);fill-rule:nonzero;"/>
                </g>
                <g transform="matrix(1,0,0,1,407.999,134.004)">
                    <path d="M0,145.022L188.429,16.206C184.986,10.602 181.249,5.202 177.261,0L-11.131,128.784C-6.89,133.781 -3.144,139.214 0,145.022" style="fill:rgb(250,199,12);fill-rule:nonzero;"/>
                </g>
                <g transform="matrix(1,0,0,1,232.14,293.741)">
                    <path d="M0,9.698L-221.372,-19.557C-222.461,-13.141 -223.23,-6.624 -223.667,-0.006L-2.248,29.255C-2.173,22.543 -1.4,16.004 0,9.698" style="fill:rgb(250,199,12);fill-rule:nonzero;"/>
                </g>
                <g transform="matrix(1,0,0,1,377.366,35.5144)">
                    <path d="M0,209.823L105.846,9.179C100.221,5.83 94.408,2.773 88.431,0L-17.399,200.626C-11.258,203.096 -5.427,206.177 0,209.823" style="fill:rgb(250,199,12);fill-rule:nonzero;"/>
                </g>
                <g transform="matrix(1,0,0,1,394.741,77.7311)">
                    <path d="M0,182.597L151.195,13.075C146.524,8.468 141.608,4.111 136.482,0L-14.693,169.497C-9.357,173.354 -4.425,177.737 0,182.597" style="fill:rgb(250,199,12);fill-rule:nonzero;"/>
                </g>
                <g transform="matrix(1,0,0,1,324.611,5.1804)">
                    <path d="M0,224.114C3.334,224.114 6.622,224.292 9.869,224.628L10.591,-0.263C7.321,-0.428 4.032,-0.514 0.722,-0.514C-2.57,-0.514 -5.841,-0.428 -9.091,-0.264L-9.813,224.619C-6.586,224.288 -3.312,224.114 0,224.114" style="fill:rgb(250,199,12);fill-rule:nonzero;"/>
                </g>
                <g transform="matrix(1,0,0,1,379.437,560.432)">
                    <path d="M0,-159.137L151.081,12.996C156.218,8.909 161.147,4.567 165.842,-0.025L14.787,-172.133C10.326,-167.307 5.369,-162.955 0,-159.137" style="fill:rgb(250,199,12);fill-rule:nonzero;"/>
                </g>
                <g transform="matrix(1,0,0,1,359.469,604.271)">
                    <path d="M0,-192.134L106.843,9.103C112.826,6.347 118.647,3.307 124.278,-0.028L17.453,-201.237C12.01,-197.622 6.164,-194.57 0,-192.134" style="fill:rgb(250,199,12);fill-rule:nonzero;"/>
                </g>
                <g transform="matrix(1,0,0,1,396.268,500.994)">
                    <path d="M0,-115.002L187.771,16.129C191.783,10.944 195.545,5.561 199.016,-0.024L11.277,-131.131C8.078,-125.354 4.291,-119.958 0,-115.002" style="fill:rgb(250,199,12);fill-rule:nonzero;"/>
                </g>
                <g transform="matrix(1,0,0,1,416.842,355.505)">
                    <path d="M0,-9.796L225.948,19.531C227.075,13.126 227.884,6.606 228.357,-0.004L2.467,-29.327C2.318,-22.62 1.476,-16.094 0,-9.796" style="fill:rgb(250,199,12);fill-rule:nonzero;"/>
                </g>
                <g transform="matrix(1,0,0,1,408.994,431.278)">
                    <path d="M0,-64.164L213.499,18.364C216.146,12.388 218.501,6.259 220.536,-0.017L7.091,-82.528C5.359,-76.108 2.971,-69.962 0,-64.164" style="fill:rgb(250,199,12);fill-rule:nonzero;"/>
                </g>
                <g transform="matrix(1,0,0,1,337.499,634.589)">
                    <path d="M0,-216.696L54.446,4.655C60.941,3.414 67.319,1.86 73.567,-0.023L19.128,-221.351C13.015,-219.163 6.618,-217.591 0,-216.696" style="fill:rgb(250,199,12);fill-rule:nonzero;"/>
                </g>
                <g transform="matrix(1,0,0,1,233.141,445.803)">
                    <path d="M0,-97.047L-209.716,-18.381C-207.681,-12.108 -205.322,-5.974 -202.675,0L7.092,-78.684C4.124,-84.486 1.73,-90.629 0,-97.047" style="fill:rgb(250,199,12);fill-rule:nonzero;"/>
                </g>
                <g transform="matrix(1,0,0,1,241.689,512.313)">
                    <path d="M0,-142.436L-185.579,-16.163C-182.105,-10.575 -178.347,-5.192 -174.333,0L11.283,-126.307C6.991,-131.262 3.201,-136.663 0,-142.436" style="fill:rgb(250,199,12);fill-rule:nonzero;"/>
                </g>
                <g transform="matrix(1,0,0,1,229.919,371.676)">
                    <path d="M0,-45.504L-221.324,-19.533C-220.854,-12.926 -220.047,-6.406 -218.921,0L2.462,-25.975C0.989,-32.273 0.147,-38.799 0,-45.504" style="fill:rgb(250,199,12);fill-rule:nonzero;"/>
                </g>
                <g transform="matrix(1,0,0,1,255.021,569.761)">
                    <path d="M0,-181.445L-148.642,-13.023C-143.953,-8.427 -139.019,-4.091 -133.88,0L14.788,-168.455C9.417,-172.269 4.458,-176.621 0,-181.445" style="fill:rgb(250,199,12);fill-rule:nonzero;"/>
                </g>
                <g transform="matrix(1,0,0,1,292.638,637.032)">
                    <path d="M0,-223.787L-56.374,-4.668C-50.128,-2.791 -43.749,-1.232 -37.253,0L19.126,-219.132C12.507,-220.033 6.107,-221.593 0,-223.787" style="fill:rgb(250,199,12);fill-rule:nonzero;"/>
                </g>
                <g transform="matrix(1,0,0,1,272.328,612.392)">
                    <path d="M0,-209.343L-104.606,-9.123C-98.973,-5.791 -93.151,-2.752 -87.168,0L17.455,-200.239C11.297,-202.673 5.451,-205.729 0,-209.343" style="fill:rgb(250,199,12);fill-rule:nonzero;"/>
                </g>
                <g transform="matrix(1,0,0,1,324.611,644.152)">
                    <path d="M0,-225.36C-3.312,-225.36 -6.586,-225.531 -9.813,-225.87L-9.812,0.267C-6.562,0.432 -3.289,0.515 0,0.515C3.311,0.515 6.604,0.432 9.869,0.267L9.869,-225.875C6.622,-225.537 3.334,-225.36 0,-225.36" style="fill:rgb(250,199,12);fill-rule:nonzero;"/>
                </g>
            </g>
        </g>
        <g transform="matrix(5.36659,0,0,5.36659,-27.7904,-14.3533)">
            <g id="sunscript">
                <g transform="matrix(1,0,0,1,187.348,208.042)">
                    <path d="M0,206.977C-30.325,210.007 -70.806,202.989 -82.368,168.979C-89.5,147.999 -76.193,117.893 -37.149,118.271C-3.995,118.594 2.535,144.299 0.5,153.454C-2.017,164.783 -15.238,171.84 -26.938,166.412C-47.47,156.897 -39.829,131.407 -16.705,134.579C-27.611,113.592 -66.005,131.844 -62.228,159.539C-59.587,178.91 -43.347,201.707 -8.718,200.911C7.629,200.535 25.777,192.193 28.81,163.762C33.914,115.911 -66.717,116.756 -62.131,49.51C-60.056,19.102 -38.25,-3.03 -8.227,-3.03C1.555,-3.03 8.817,-0.404 14.599,2.317C22.454,6.012 26.208,9.6 29.757,10.162C37.504,11.388 42.109,1.538 43.084,-0.001C44.06,-1.539 45.715,-1.184 45.736,-0.001C45.76,1.182 48.384,53.702 48.389,53.908C48.502,57.763 46.235,57.536 45.214,54.475C43.997,50.821 25.891,6.978 -0.72,6.978C-14.822,6.978 -30.062,15.848 -30.062,31.314C-30.062,70.207 77.521,64.632 65.465,145.033C60.675,176.973 42.054,202.429 0,206.977" style="fill-rule:nonzero;"/>
                </g>
                <g transform="matrix(1,0,0,1,371.802,380.797)">
                    <path d="M0,-107.93C7.368,-107.93 8.846,-101.3 8.846,-99.048L8.846,-26.119C8.846,-18.04 9.8,-13.015 11.712,-11.044C13.62,-9.067 17.489,-9.067 23.322,-8.506L23.322,-4.415L-7.598,-4.415C-30.174,-4.415 -30.17,-15.947 -30.17,-15.947C-36.508,-9.877 -43.482,-6.76 -49.814,-4.057C-56.152,-1.358 -63.243,0 -71.09,0C-78.564,0 -85.206,-1.844 -91.018,-5.532C-96.835,-9.22 -100.735,-13.518 -102.722,-18.433C-104.708,-23.352 -105.701,-31.908 -105.701,-44.105L-105.701,-84.956C-105.701,-93.001 -106.635,-97.991 -108.499,-99.934C-110.362,-101.87 -114.257,-103.175 -120.176,-103.839L-120.176,-107.93L-74.735,-107.93C-67.737,-107.93 -66.049,-101.616 -66.049,-99.048L-66.049,-36.701C-66.049,-29.132 -65.602,-24.261 -64.703,-22.087C-63.803,-19.909 -62.382,-18.253 -60.44,-17.12C-58.499,-15.984 -56.246,-15.419 -53.684,-15.419C-50.276,-15.419 -47.198,-16.127 -44.449,-17.548C-40.663,-19.535 -36.114,-22.24 -30.804,-28.2L-30.804,-86.225C-30.804,-94.27 -31.738,-97.991 -33.602,-99.934C-35.465,-101.87 -39.36,-103.175 -45.281,-103.839L-45.281,-107.93L0,-107.93Z" style="fill-rule:nonzero;"/>
                </g>
                <g transform="matrix(1,0,0,1,535.912,283.558)">
                    <path d="M0,117.311C-2.473,117.311 -4.734,116.665 -6.78,115.381C-8.826,114.1 -10.275,112.32 -11.133,110.038C-11.986,107.756 -12.414,102.248 -12.414,93.506L-12.414,29.63C-12.414,17.371 -13.172,9.057 -14.687,4.682C-16.583,-1.019 -20.377,-5.793 -26.06,-9.643C-31.744,-13.493 -38.898,-15.419 -47.518,-15.419C-54.721,-15.419 -61.447,-14.063 -67.701,-11.349C-73.957,-8.634 -80.49,-5.596 -87.312,0.306C-87.312,0.306 -87.297,-10.691 -97.542,-10.691L-141.437,-10.691L-141.437,-6.6C-135.518,-5.936 -131.624,-4.631 -129.76,-2.695C-127.896,-0.752 -126.961,2.969 -126.961,11.014L-126.961,71.12C-126.961,79.233 -127.776,84.081 -129.4,85.665C-131.791,88.093 -135.803,88.27 -141.437,88.733L-141.437,92.824L-74.095,92.824L-74.095,88.733C-79.173,88.172 -82.645,88.112 -84.514,86.014C-86.381,83.918 -87.312,78.953 -87.312,71.12L-87.312,12.892C-80.274,3.452 -72.664,0 -64.48,0C-62.008,0 -59.746,0.645 -57.701,1.926C-55.655,3.21 -54.205,4.991 -53.349,7.272C-52.493,9.554 -52.064,15.06 -52.064,23.804L-52.064,87.68C-52.064,99.939 -51.308,108.253 -49.793,112.629C-47.896,118.328 -44.104,123.103 -38.422,126.953C-32.736,130.803 -25.582,132.73 -16.964,132.73C-9.76,132.73 2.092,130.739 8.37,128.079C26.935,120.21 33.44,113.298 39.21,106.365C39.826,105.624 37.225,102.052 36.151,103.149C22.847,116.749 8.182,117.311 0,117.311" style="fill-rule:nonzero;"/>
                </g>
            </g>
        </g>
        <g transform="matrix(1,0,0,1,3644.61,2023.43)">
            <g id="WINDOWS---DOORS" serif:id="WINDOWS &amp; DOORS">
                <path d="M551.401,14.309L533.841,14.309L372.674,-470.449L231.799,14.309L213.068,14.309L85.461,-443.566C74.014,-485.191 65.754,-512.869 60.681,-526.6C55.608,-540.33 48.974,-550.447 40.779,-556.951C32.585,-563.455 18.991,-567.141 0,-568.008L0,-587.953L198.629,-587.953L198.629,-568.008C174.695,-566.273 159.346,-562.443 152.582,-556.518C145.818,-550.592 142.436,-542.281 142.436,-531.586C142.436,-522.047 147.899,-497.621 158.825,-458.309L253.262,-115.77L391.405,-587.953L413.258,-587.953L568.571,-115.77L649.35,-427.957C660.016,-470.16 665.35,-497.766 665.35,-510.773C665.35,-548.93 647.009,-568.008 610.327,-568.008L610.327,-587.953L754.713,-587.953L754.713,-568.008C733.38,-566.273 717.511,-557.529 707.105,-541.775C696.698,-526.021 683.561,-488.227 667.691,-428.391L551.401,14.309Z" style="fill-rule:nonzero;"/>
                <path d="M838.067,-568.008L838.067,-587.953L1080.01,-587.953L1080.01,-568.008L1068.7,-568.008C1042.68,-568.008 1025.64,-565.623 1017.58,-560.854C1009.51,-556.084 1004.11,-547.195 1001.38,-534.188C998.649,-521.18 997.283,-490.25 997.283,-441.398L997.283,-153.059C997.283,-106.809 998.259,-76.529 1000.21,-62.221C1002.16,-47.912 1007.36,-37.289 1015.82,-30.352C1024.27,-23.414 1040.47,-19.945 1064.4,-19.945L1080.01,-19.945L1080.01,0L838.067,0L838.067,-19.945L853.677,-19.945C876.31,-19.945 891.985,-23.125 900.7,-29.484C909.415,-35.844 914.944,-45.744 917.285,-59.186C919.626,-72.627 920.797,-103.918 920.797,-153.059L920.797,-441.398C920.797,-488.227 919.626,-518.434 917.285,-532.02C914.944,-545.605 909.74,-555 901.676,-560.203C893.611,-565.406 876.18,-568.008 849.384,-568.008L838.067,-568.008Z" style="fill-rule:nonzero;"/>
                <path d="M1652.33,13.441L1278.1,-537.656L1278.1,-129.645C1278.1,-95.824 1279.59,-73.566 1282.58,-62.871C1285.58,-52.176 1294.1,-42.348 1308.14,-33.387C1322.19,-24.426 1343.27,-19.945 1371.36,-19.945L1371.36,0L1173.9,0L1173.9,-19.945C1199.14,-21.969 1218.39,-27.1 1231.66,-35.338C1244.93,-43.576 1252.8,-52.465 1255.27,-62.004C1257.74,-71.543 1258.97,-94.09 1258.97,-129.645L1258.97,-441.398C1258.97,-486.492 1257.09,-516.699 1253.32,-532.02C1249.54,-547.34 1243.56,-557.168 1235.37,-561.504C1227.17,-565.84 1208.89,-568.008 1180.54,-568.008L1180.54,-587.953L1336.63,-587.953L1649.99,-127.91L1649.99,-479.555C1649.99,-505.57 1647.58,-523.781 1642.77,-534.188C1637.96,-544.594 1628.14,-552.832 1613.31,-558.902C1598.48,-564.973 1580.66,-568.008 1559.85,-568.008L1559.85,-587.953L1751.84,-587.953L1751.84,-568.008C1729.47,-565.984 1711.84,-561.215 1698.96,-553.699C1686.09,-546.184 1677.89,-537.15 1674.38,-526.6C1670.87,-516.049 1669.11,-498.199 1669.11,-473.051L1669.11,13.441L1652.33,13.441Z" style="fill-rule:nonzero;"/>
                <path d="M1838.32,-583.184L1925.34,-587.953C1997.92,-592 2046.83,-594.023 2072.07,-594.023C2150.63,-594.023 2211.9,-580.727 2255.87,-554.133C2299.83,-527.539 2332.55,-491.479 2354.01,-445.951C2375.47,-400.424 2386.2,-347.887 2386.2,-288.34C2386.2,-245.27 2380.35,-205.885 2368.64,-170.186C2356.94,-134.486 2340.87,-104.857 2320.45,-81.299C2300.03,-57.74 2276.35,-39.818 2249.43,-27.533C2222.5,-15.248 2196.94,-7.588 2172.75,-4.553C2148.55,-1.518 2114.47,0 2070.51,0L1835.98,0L1835.98,-19.945L1857.83,-19.945C1880.46,-19.945 1896.14,-23.125 1904.85,-29.484C1913.57,-35.844 1919.16,-45.744 1921.63,-59.186C1924.1,-72.627 1925.34,-103.918 1925.34,-153.059L1925.34,-436.629C1925.34,-483.457 1924.1,-513.736 1921.63,-527.467C1919.16,-541.197 1913.96,-550.592 1906.02,-555.65C1898.09,-560.709 1880.72,-563.238 1853.92,-563.238L1838.32,-563.238L1838.32,-583.184ZM2001.43,-571.043L2001.43,-178.207C2001.43,-120.105 2002.41,-82.672 2004.36,-65.906C2006.31,-49.141 2012.17,-37.361 2021.92,-30.568C2031.68,-23.775 2052.3,-20.379 2083.77,-20.379C2129.82,-20.379 2167.67,-27.389 2197.33,-41.408C2226.99,-55.428 2251.77,-83.033 2271.67,-124.225C2291.57,-165.416 2301.52,-217.953 2301.52,-281.836C2301.52,-331.555 2295.74,-375.926 2284.16,-414.949C2272.58,-453.973 2256,-485.697 2234.4,-510.123C2212.81,-534.549 2188.88,-551.17 2162.6,-559.986C2136.32,-568.803 2102.64,-573.211 2061.53,-573.211C2041.76,-573.211 2021.73,-572.488 2001.43,-571.043Z" style="fill-rule:nonzero;"/>
                <path d="M2528.09,-297.879C2528.09,-388.645 2555.41,-461.488 2610.04,-516.41C2664.68,-571.332 2732.84,-598.793 2814.53,-598.793C2897,-598.793 2965.87,-571.621 3021.16,-517.277C3076.44,-462.934 3104.08,-388.789 3104.08,-294.844C3104.08,-203.789 3077.61,-130.078 3024.67,-73.711C2971.73,-17.344 2902.07,10.84 2815.7,10.84C2731.67,10.84 2662.72,-17.344 2608.87,-73.711C2555.02,-130.078 2528.09,-204.801 2528.09,-297.879ZM2617.46,-294.844C2617.46,-200.32 2634.43,-129.355 2668.38,-81.949C2702.33,-34.543 2753.26,-10.84 2821.16,-10.84C2880.74,-10.84 2927.82,-34.543 2962.43,-81.949C2997.03,-129.355 3014.33,-200.031 3014.33,-293.977C3014.33,-385.32 2997.29,-455.346 2963.21,-504.053C2929.12,-552.76 2879.7,-577.113 2814.92,-577.113C2751.18,-577.113 2702.33,-553.338 2668.38,-505.787C2634.43,-458.236 2617.46,-387.922 2617.46,-294.844Z" style="fill-rule:nonzero;"/>
                <path d="M3733.76,14.309L3716.2,14.309L3555.03,-470.449L3414.16,14.309L3395.43,14.309L3267.82,-443.566C3256.38,-485.191 3248.12,-512.869 3243.04,-526.6C3237.97,-540.33 3231.34,-550.447 3223.14,-556.951C3214.95,-563.455 3201.35,-567.141 3182.36,-568.008L3182.36,-587.953L3380.99,-587.953L3380.99,-568.008C3357.06,-566.273 3341.71,-562.443 3334.94,-556.518C3328.18,-550.592 3324.8,-542.281 3324.8,-531.586C3324.8,-522.047 3330.26,-497.621 3341.19,-458.309L3435.62,-115.77L3573.77,-587.953L3595.62,-587.953L3750.93,-115.77L3831.71,-427.957C3842.38,-470.16 3847.71,-497.766 3847.71,-510.773C3847.71,-548.93 3829.37,-568.008 3792.69,-568.008L3792.69,-587.953L3937.08,-587.953L3937.08,-568.008C3915.74,-566.273 3899.87,-557.529 3889.47,-541.775C3879.06,-526.021 3865.92,-488.227 3850.05,-428.391L3733.76,14.309Z" style="fill-rule:nonzero;"/>
                <path d="M4045.79,-6.07L4045.79,-195.117L4065.31,-195.117C4087.42,-71.977 4139.84,-10.406 4222.57,-10.406C4259.77,-10.406 4288.59,-22.186 4309.01,-45.744C4329.43,-69.303 4339.64,-95.68 4339.64,-124.875C4339.64,-154.359 4330.66,-179.074 4312.71,-199.02C4294.76,-218.676 4261.98,-239.777 4214.38,-262.324C4171.97,-282.559 4139.97,-300.264 4118.38,-315.439C4096.78,-330.615 4079.94,-350.344 4067.84,-374.625C4055.74,-398.906 4049.7,-424.777 4049.7,-452.238C4049.7,-494.152 4062.77,-529.057 4088.91,-556.951C4115.06,-584.846 4148.16,-598.793 4188.23,-598.793C4210.6,-598.793 4231.68,-594.746 4251.45,-586.652C4271.22,-578.559 4291.51,-561.793 4312.32,-536.355C4324.29,-552.254 4331.06,-569.453 4332.62,-587.953L4349.79,-587.953L4349.79,-434.027L4332.62,-434.027C4322.73,-478.832 4305.23,-514.098 4280.13,-539.824C4255.02,-565.551 4225.95,-578.414 4192.91,-578.414C4161.43,-578.414 4138.34,-568.947 4123.65,-550.014C4108.95,-531.08 4101.6,-510.34 4101.6,-487.793C4101.6,-460.621 4110.83,-437.641 4129.3,-418.852C4147.52,-399.773 4180.43,-378.383 4228.03,-354.68C4273.56,-332.133 4306.67,-313.994 4327.35,-300.264C4348.03,-286.533 4364.61,-267.527 4377.1,-243.246C4389.59,-218.965 4395.83,-190.926 4395.83,-159.129C4395.83,-108.832 4380.74,-67.93 4350.57,-36.422C4320.39,-4.914 4280.07,10.84 4229.59,10.84C4171.58,10.84 4123.19,-13.875 4084.43,-63.305C4075.84,-49.719 4069.47,-30.641 4065.31,-6.07L4045.79,-6.07Z" style="fill-rule:nonzero;"/>
                <path d="M5023.52,-279.932L5155.18,-279.932L5155.18,-264.209C5138.77,-259.196 5124.21,-250.309 5111.49,-237.549C5099.39,-225.244 5086.68,-201.204 5073.35,-165.43C5062.27,-136.035 5052.12,-114.616 5042.89,-101.172C5064.84,-66.081 5082.06,-43.978 5094.57,-34.863C5107.29,-25.521 5120.62,-20.85 5134.56,-20.85C5153.84,-20.85 5168.71,-30.99 5179.17,-51.27L5193.32,-51.27C5189.01,-32.585 5179.78,-17.432 5165.63,-5.811C5151.69,5.583 5135.49,11.279 5117.03,11.279C5077.04,11.279 5041.87,-11.051 5011.52,-55.713C4975.63,-11.051 4937.48,11.279 4897.08,11.279C4882.52,11.507 4868.17,8.545 4854.02,2.393C4839.87,-3.76 4827.26,-12.476 4816.18,-23.755C4805.11,-35.034 4796.19,-48.478 4789.42,-64.087C4782.65,-79.696 4779.47,-96.842 4779.88,-115.527C4779.88,-144.01 4786.85,-168.05 4800.8,-187.646C4814.74,-207.015 4841.71,-231.624 4881.7,-261.475C4857.71,-298.617 4845.71,-332.227 4845.71,-362.305C4845.71,-385.775 4853.91,-406.852 4870.32,-425.537C4886.52,-444.222 4907.13,-453.564 4932.15,-453.564C4954.51,-453.564 4974.5,-446.615 4992.14,-432.715C5009.98,-418.587 5018.9,-400.358 5018.9,-378.027C5018.9,-342.936 4989.37,-308.87 4930.31,-275.83C4948.76,-248.258 4966.55,-221.257 4983.68,-194.824C5000.8,-168.392 5017.47,-142.301 5033.67,-116.553C5045.36,-134.554 5054.58,-153.353 5061.35,-172.949C5068.12,-192.318 5071.5,-207.585 5071.5,-218.75C5071.5,-244.954 5055.51,-260.107 5023.52,-264.209L5023.52,-279.932ZM4921.69,-288.818C4962.71,-315.479 4983.22,-344.303 4983.22,-375.293C4983.22,-384.408 4982.04,-392.782 4979.68,-400.415C4977.32,-408.049 4973.94,-414.6 4969.53,-420.068C4965.12,-425.537 4959.84,-429.753 4953.69,-432.715C4947.53,-435.677 4940.77,-437.158 4933.38,-437.158C4918.41,-437.158 4906.52,-431.689 4897.7,-420.752C4888.88,-410.042 4884.47,-396.484 4884.47,-380.078C4884.47,-357.747 4896.88,-327.327 4921.69,-288.818ZM4890.93,-247.461C4869.6,-232.65 4853.1,-215.56 4841.4,-196.191C4829.72,-176.595 4823.87,-157.796 4823.87,-139.795C4823.87,-111.54 4834.02,-84.993 4854.32,-60.156C4874.63,-35.319 4897.6,-22.9 4923.23,-22.9C4951.53,-22.9 4977.89,-38.509 5002.29,-69.727C4980.55,-106.413 4960.45,-139.51 4942,-169.019C4923.54,-198.527 4906.52,-224.674 4890.93,-247.461Z" style="fill-rule:nonzero;"/>
                <path d="M5517.5,-583.184L5604.53,-587.953C5677.11,-592 5726.02,-594.023 5751.25,-594.023C5829.82,-594.023 5891.09,-580.727 5935.05,-554.133C5979.02,-527.539 6011.73,-491.479 6033.2,-445.951C6054.66,-400.424 6065.39,-347.887 6065.39,-288.34C6065.39,-245.27 6059.54,-205.885 6047.83,-170.186C6036.12,-134.486 6020.06,-104.857 5999.64,-81.299C5979.22,-57.74 5955.54,-39.818 5928.61,-27.533C5901.69,-15.248 5876.13,-7.588 5851.93,-4.553C5827.74,-1.518 5793.66,0 5749.69,0L5515.16,0L5515.16,-19.945L5537.01,-19.945C5559.65,-19.945 5575.32,-23.125 5584.04,-29.484C5592.75,-35.844 5598.35,-45.744 5600.82,-59.186C5603.29,-72.627 5604.53,-103.918 5604.53,-153.059L5604.53,-436.629C5604.53,-483.457 5603.29,-513.736 5600.82,-527.467C5598.35,-541.197 5593.14,-550.592 5585.21,-555.65C5577.27,-560.709 5559.91,-563.238 5533.11,-563.238L5517.5,-563.238L5517.5,-583.184ZM5680.62,-571.043L5680.62,-178.207C5680.62,-120.105 5681.6,-82.672 5683.55,-65.906C5685.5,-49.141 5691.35,-37.361 5701.11,-30.568C5710.86,-23.775 5731.48,-20.379 5762.96,-20.379C5809.01,-20.379 5846.86,-27.389 5876.52,-41.408C5906.18,-55.428 5930.96,-83.033 5950.86,-124.225C5970.76,-165.416 5980.71,-217.953 5980.71,-281.836C5980.71,-331.555 5974.92,-375.926 5963.35,-414.949C5951.77,-453.973 5935.18,-485.697 5913.59,-510.123C5892,-534.549 5868.06,-551.17 5841.79,-559.986C5815.51,-568.803 5781.82,-573.211 5740.72,-573.211C5720.94,-573.211 5700.91,-572.488 5680.62,-571.043Z" style="fill-rule:nonzero;"/>
                <path d="M6207.28,-297.879C6207.28,-388.645 6234.6,-461.488 6289.23,-516.41C6343.86,-571.332 6412.02,-598.793 6493.71,-598.793C6576.18,-598.793 6645.06,-571.621 6700.34,-517.277C6755.62,-462.934 6783.27,-388.789 6783.27,-294.844C6783.27,-203.789 6756.8,-130.078 6703.85,-73.711C6650.91,-17.344 6581.26,10.84 6494.88,10.84C6410.85,10.84 6341.91,-17.344 6288.06,-73.711C6234.21,-130.078 6207.28,-204.801 6207.28,-297.879ZM6296.64,-294.844C6296.64,-200.32 6313.62,-129.355 6347.57,-81.949C6381.52,-34.543 6432.45,-10.84 6500.35,-10.84C6559.92,-10.84 6607.01,-34.543 6641.61,-81.949C6676.21,-129.355 6693.51,-200.031 6693.51,-293.977C6693.51,-385.32 6676.47,-455.346 6642.39,-504.053C6608.31,-552.76 6558.88,-577.113 6494.1,-577.113C6430.36,-577.113 6381.52,-553.338 6347.57,-505.787C6313.62,-458.236 6296.64,-387.922 6296.64,-294.844Z" style="fill-rule:nonzero;"/>
                <path d="M6924.77,-297.879C6924.77,-388.645 6952.08,-461.488 7006.72,-516.41C7061.35,-571.332 7129.51,-598.793 7211.2,-598.793C7293.67,-598.793 7362.54,-571.621 7417.83,-517.277C7473.11,-462.934 7500.75,-388.789 7500.75,-294.844C7500.75,-203.789 7474.28,-130.078 7421.34,-73.711C7368.4,-17.344 7298.74,10.84 7212.37,10.84C7128.34,10.84 7059.4,-17.344 7005.54,-73.711C6951.69,-130.078 6924.77,-204.801 6924.77,-297.879ZM7014.13,-294.844C7014.13,-200.32 7031.1,-129.355 7065.06,-81.949C7099.01,-34.543 7149.93,-10.84 7217.83,-10.84C7277.41,-10.84 7324.5,-34.543 7359.1,-81.949C7393.7,-129.355 7411,-200.031 7411,-293.977C7411,-385.32 7393.96,-455.346 7359.88,-504.053C7325.8,-552.76 7276.37,-577.113 7211.59,-577.113C7147.85,-577.113 7099.01,-553.338 7065.06,-505.787C7031.1,-458.236 7014.13,-387.922 7014.13,-294.844Z" style="fill-rule:nonzero;"/>
                <path d="M8182.34,0L8039.9,0C8014.66,-19.656 7976.03,-71.109 7924,-154.359C7907.35,-180.953 7890.05,-206.463 7872.1,-230.889C7854.15,-255.314 7841.79,-270.201 7835.03,-275.549C7828.26,-280.896 7817.73,-283.57 7803.42,-283.57L7782.35,-283.57L7782.35,-153.059C7782.35,-106.809 7783.32,-76.529 7785.27,-62.221C7787.22,-47.912 7792.43,-37.289 7800.88,-30.352C7809.34,-23.414 7825.53,-19.945 7849.47,-19.945L7874.83,-19.945L7874.83,0L7621.57,0L7621.57,-19.945L7638.74,-19.945C7661.37,-19.945 7677.05,-23.125 7685.76,-29.484C7694.48,-35.844 7700.01,-45.744 7702.35,-59.186C7704.69,-72.627 7705.86,-103.918 7705.86,-153.059L7705.86,-441.398C7705.86,-488.227 7704.69,-518.434 7702.35,-532.02C7700.01,-545.605 7694.8,-555 7686.74,-560.203C7678.67,-565.406 7661.24,-568.008 7634.45,-568.008L7625.47,-568.008L7625.47,-587.953L7701.18,-592.289C7751.65,-594.891 7791.71,-596.191 7821.37,-596.191C7871.84,-596.191 7912.88,-590.988 7944.49,-580.582C7976.1,-570.176 8001.66,-553.121 8021.17,-529.418C8040.68,-505.715 8050.44,-477.387 8050.44,-444.434C8050.44,-405.988 8037.69,-373.18 8012.19,-346.008C7986.7,-318.836 7949.24,-301.926 7899.81,-295.277C7921.92,-283.426 7957.56,-240.645 8006.73,-166.934C8046.79,-107.098 8078.27,-67.93 8101.17,-49.43C8124.06,-30.93 8151.12,-21.102 8182.34,-19.945L8182.34,0ZM7782.35,-303.516C7801.86,-304.094 7822.02,-304.961 7842.83,-306.117C7863.64,-307.273 7881.72,-310.453 7897.07,-315.656C7912.42,-320.859 7924.85,-328.447 7934.34,-338.42C7943.84,-348.393 7951.32,-361.473 7956.78,-377.66C7962.24,-393.848 7964.97,-413.793 7964.97,-437.496C7964.97,-478.832 7955.67,-511.93 7937.07,-536.789C7918.47,-561.648 7877.95,-574.078 7815.52,-574.078C7805.89,-574.078 7794.83,-573.5 7782.35,-572.344L7782.35,-303.516Z" style="fill-rule:nonzero;"/>
                <path d="M8289.88,-6.07L8289.88,-195.117L8309.4,-195.117C8331.51,-71.977 8383.93,-10.406 8466.66,-10.406C8503.86,-10.406 8532.67,-22.186 8553.1,-45.744C8573.52,-69.303 8583.73,-95.68 8583.73,-124.875C8583.73,-154.359 8574.76,-179.074 8556.8,-199.02C8538.85,-218.676 8506.07,-239.777 8458.47,-262.324C8416.06,-282.559 8384.06,-300.264 8362.47,-315.439C8340.87,-330.615 8324.03,-350.344 8311.93,-374.625C8299.83,-398.906 8293.79,-424.777 8293.79,-452.238C8293.79,-494.152 8306.86,-529.057 8333,-556.951C8359.15,-584.846 8392.26,-598.793 8432.32,-598.793C8454.69,-598.793 8475.76,-594.746 8495.54,-586.652C8515.31,-578.559 8535.6,-561.793 8556.41,-536.355C8568.38,-552.254 8575.15,-569.453 8576.71,-587.953L8593.88,-587.953L8593.88,-434.027L8576.71,-434.027C8566.82,-478.832 8549.32,-514.098 8524.22,-539.824C8499.11,-565.551 8470.04,-578.414 8437,-578.414C8405.52,-578.414 8382.43,-568.947 8367.74,-550.014C8353.04,-531.08 8345.69,-510.34 8345.69,-487.793C8345.69,-460.621 8354.92,-437.641 8373.39,-418.852C8391.6,-399.773 8424.51,-378.383 8472.12,-354.68C8517.65,-332.133 8550.76,-313.994 8571.44,-300.264C8592.12,-286.533 8608.7,-267.527 8621.19,-243.246C8633.68,-218.965 8639.92,-190.926 8639.92,-159.129C8639.92,-108.832 8624.84,-67.93 8594.66,-36.422C8564.48,-4.914 8524.15,10.84 8473.68,10.84C8415.67,10.84 8367.28,-13.875 8328.52,-63.305C8319.93,-49.719 8313.56,-30.641 8309.4,-6.07L8289.88,-6.07Z" style="fill-rule:nonzero;"/>
            </g>
        </g>
    </g>
</svg>
